<svg version="1.1" id="Layer_1" xmlns="http://www.w3.org/2000/svg" xmlns:xlink="http://www.w3.org/1999/xlink" x="0px" y="0px"
	 width="100%" viewBox="0 0 500 500" enable-background="new 0 0 500 500" xml:space="preserve">
<path fill="#000000" opacity="1.000000" stroke="none" 
	d="
M344.000000,501.000000 
	C229.333359,501.000000 115.166718,501.000000 1.000061,501.000000 
	C1.000041,334.333405 1.000041,167.666794 1.000020,1.000151 
	C167.666565,1.000100 334.333130,1.000100 500.999756,1.000050 
	C500.999847,167.666519 500.999847,334.333038 500.999939,500.999786 
	C448.833344,501.000000 396.666656,501.000000 344.000000,501.000000 
M344.352325,369.507751 
	C344.557983,369.324646 344.605988,369.106659 344.792938,367.978546 
	C344.814240,350.650970 344.866333,333.323334 344.850494,315.995789 
	C344.816681,279.010742 344.747650,242.025681 344.883484,204.286346 
	C344.820251,203.516418 344.757050,202.746490 344.840149,201.198151 
	C344.790039,200.146973 344.739929,199.095779 344.874542,197.361237 
	C344.813568,196.897141 344.752594,196.433060 344.841187,195.046677 
	C344.790131,188.378082 344.739105,181.709473 344.876526,174.285995 
	C344.814423,173.515686 344.752350,172.745392 344.841522,171.052002 
	C344.792755,163.052139 344.743988,155.052261 344.883118,146.218262 
	C344.820740,144.802292 344.758362,143.386307 344.838837,141.356812 
	C344.788116,140.942932 344.737396,140.529037 344.864990,139.328995 
	C343.208557,138.797516 341.552704,137.803528 339.895599,137.801422 
	C279.575897,137.724518 219.256042,137.740005 158.936218,137.742416 
	C143.326981,137.743042 127.717751,137.742508 111.646873,137.742508 
	C111.646873,140.218002 111.645775,142.350372 111.647049,144.482758 
	C111.660004,166.143585 111.684479,187.804413 111.684380,209.465240 
	C111.684135,261.118073 111.660477,312.770935 111.724922,364.423706 
	C111.726784,365.913147 112.613144,367.401489 113.497505,368.994110 
	C113.497505,368.994110 113.914932,369.064545 114.385101,369.801422 
	C115.378281,369.870087 116.371468,369.998810 117.364647,369.998871 
	C191.604080,370.003357 265.843506,369.999786 340.082947,369.975189 
	C341.390350,369.974762 342.697693,369.711243 344.352325,369.507751 
M410.471985,302.475616 
	C394.992371,302.445404 379.510223,302.561493 364.034821,302.291168 
	C359.685577,302.215210 358.179382,303.520844 358.232361,307.893555 
	C358.403625,322.029327 358.251495,336.168976 358.231171,350.307129 
	C358.221954,356.717743 358.229614,363.128357 358.229614,369.693634 
	C380.557068,369.693634 401.778412,369.693634 423.257233,369.693634 
	C423.374451,367.794525 423.542633,366.320587 423.544586,364.846466 
	C423.566895,347.857819 423.623016,330.868866 423.547699,313.880554 
	C423.495117,302.025543 423.410614,302.025909 410.471985,302.475616 
z"/>
<path fill="#D5F60E" opacity="1.000000" stroke="none" 
	d="
M344.693054,205.040634 
	C344.747650,242.025681 344.816681,279.010742 344.850494,315.995789 
	C344.866333,333.323334 344.814240,350.650970 344.464478,368.423767 
	C344.136047,368.868988 343.793671,368.973907 343.338684,368.943787 
	C316.053802,368.917816 289.223877,368.909088 262.393951,368.928833 
	C212.900940,368.965240 163.407944,369.018402 113.914932,369.064545 
	C113.914932,369.064545 113.497505,368.994110 113.272728,368.481140 
	C113.039452,294.171936 113.029167,220.375732 113.025169,146.579529 
	C113.024765,139.044235 113.042274,139.024368 120.453545,139.023880 
	C192.750549,139.019058 265.047577,139.010696 337.344543,139.067734 
	C339.792206,139.069672 342.239319,139.750687 344.686707,140.115158 
	C344.737396,140.529037 344.788116,140.942932 344.586761,141.948425 
	C344.454865,144.044144 344.575073,145.548279 344.695251,147.052399 
	C344.743988,155.052261 344.792755,163.052139 344.596191,171.739868 
	C344.463226,173.298798 344.575653,174.169830 344.688080,175.040878 
	C344.739105,181.709473 344.790131,188.378082 344.613373,195.689545 
	C344.487000,196.903137 344.588409,197.473862 344.689819,198.044601 
	C344.739929,199.095779 344.790039,200.146973 344.597382,201.813614 
	C344.467438,203.299591 344.580231,204.170120 344.693054,205.040634 
M214.159378,240.119751 
	C213.442703,241.754105 212.154465,243.372086 212.107117,245.025620 
	C211.887833,252.681351 212.008911,260.346954 212.016403,268.009003 
	C212.022964,274.712433 216.037460,277.457825 222.548019,275.497467 
	C225.188416,274.702423 228.019745,274.102173 230.752029,274.147461 
	C235.707535,274.229553 240.658173,275.235718 245.603149,275.179382 
	C253.712585,275.087097 261.826447,274.595490 269.917603,273.992889 
	C274.419037,273.657654 275.940826,275.903503 275.981171,279.836548 
	C276.044403,285.998840 276.037659,292.162140 276.018829,298.324890 
	C276.000580,304.288177 275.397278,304.964935 269.455536,304.973785 
	C244.803757,305.010468 220.151855,305.002289 195.500061,304.969269 
	C193.027435,304.965942 190.527008,304.370544 188.088165,304.590240 
	C181.368652,305.195557 180.990936,304.982544 180.987228,298.151886 
	C180.972015,270.168701 180.968369,242.185547 180.971237,214.202377 
	C180.971970,207.053741 181.030258,206.984879 188.262283,206.982559 
	C226.406021,206.970337 264.549774,206.989288 302.693420,206.930893 
	C304.781860,206.927689 306.869415,206.325912 309.194580,205.513733 
	C309.220459,205.334427 309.246338,205.155106 309.668243,204.258942 
	C309.513947,194.498978 309.359650,184.738998 309.060028,174.446335 
	C309.019562,174.266785 308.979095,174.087250 308.596100,173.353516 
	C308.003845,173.122299 307.411896,172.689468 306.819305,172.688538 
	C254.154083,172.607605 201.488831,172.555573 148.823593,172.563309 
	C148.222321,172.563385 147.621185,173.368851 146.866989,174.750366 
	C146.871658,177.578415 146.878128,180.406464 146.880753,183.234512 
	C146.928345,234.472168 146.975510,285.709808 147.668625,337.465546 
	C148.971329,337.641205 150.273956,337.969818 151.576752,337.970490 
	C202.456970,337.997131 253.337219,338.003723 304.217377,337.948456 
	C305.777863,337.946747 307.337646,337.261505 309.107635,336.611420 
	C309.275299,336.321869 309.442963,336.032349 309.832794,334.718048 
	C309.881866,304.745209 309.938019,274.772400 309.947449,244.799561 
	C309.947723,243.850204 309.466309,242.900681 308.979370,241.374039 
	C308.642029,241.159409 308.304657,240.944778 307.249969,240.337067 
	C306.264404,240.221497 305.278839,240.005005 304.293274,240.005020 
	C274.509949,240.005692 244.726608,240.027740 214.159378,240.119751 
z"/>
<path fill="#F46806" opacity="1.000000" stroke="none" 
	d="
M410.965515,302.477325 
	C423.410614,302.025909 423.495117,302.025543 423.547699,313.880554 
	C423.623016,330.868866 423.566895,347.857819 423.544586,364.846466 
	C423.542633,366.320587 423.374451,367.794525 423.257233,369.693634 
	C401.778412,369.693634 380.557068,369.693634 358.229614,369.693634 
	C358.229614,363.128357 358.221954,356.717743 358.231171,350.307129 
	C358.251495,336.168976 358.403625,322.029327 358.232361,307.893555 
	C358.179382,303.520844 359.685577,302.215210 364.034821,302.291168 
	C379.510223,302.561493 394.992371,302.445404 410.965515,302.477325 
M381.076996,345.679169 
	C387.643311,345.995575 394.209595,346.311951 400.721069,346.625702 
	C400.721069,339.238464 400.721069,332.697021 400.721069,325.912354 
	C395.055756,325.912354 389.755035,326.022614 384.461914,325.869690 
	C381.437653,325.782257 380.859589,327.281219 380.919403,329.865021 
	C381.034698,334.843475 380.950897,339.826599 381.076996,345.679169 
z"/>
<path fill="#C5DD37" opacity="1.000000" stroke="none" 
	d="
M344.775848,139.722076 
	C342.239319,139.750687 339.792206,139.069672 337.344543,139.067734 
	C265.047577,139.010696 192.750549,139.019058 120.453545,139.023880 
	C113.042274,139.024368 113.024765,139.044235 113.025169,146.579529 
	C113.029167,220.375732 113.039452,294.171936 113.067520,368.429260 
	C112.613144,367.401489 111.726784,365.913147 111.724922,364.423706 
	C111.660477,312.770935 111.684135,261.118073 111.684380,209.465240 
	C111.684479,187.804413 111.660004,166.143585 111.647049,144.482758 
	C111.645775,142.350372 111.646873,140.218002 111.646873,137.742508 
	C127.717751,137.742508 143.326981,137.743042 158.936218,137.742416 
	C219.256042,137.740005 279.575897,137.724518 339.895599,137.801422 
	C341.552704,137.803528 343.208557,138.797516 344.775848,139.722076 
z"/>
<path fill="#D6E853" opacity="1.000000" stroke="none" 
	d="
M114.150017,369.432983 
	C163.407944,369.018402 212.900940,368.965240 262.393951,368.928833 
	C289.223877,368.909088 316.053802,368.917816 343.380737,369.097595 
	C343.877716,369.281525 344.005066,369.570465 344.005066,369.570465 
	C342.697693,369.711243 341.390350,369.974762 340.082947,369.975189 
	C265.843506,369.999786 191.604080,370.003357 117.364647,369.998871 
	C116.371468,369.998810 115.378281,369.870087 114.150017,369.432983 
z"/>
<path fill="#C5DD37" opacity="1.000000" stroke="none" 
	d="
M344.789185,146.635330 
	C344.575073,145.548279 344.454865,144.044144 344.515320,142.255188 
	C344.758362,143.386307 344.820740,144.802292 344.789185,146.635330 
z"/>
<path fill="#C5DD37" opacity="1.000000" stroke="none" 
	d="
M344.788269,204.663483 
	C344.580231,204.170120 344.467438,203.299591 344.524231,202.202820 
	C344.757050,202.746490 344.820251,203.516418 344.788269,204.663483 
z"/>
<path fill="#C5DD37" opacity="1.000000" stroke="none" 
	d="
M344.782288,174.663437 
	C344.575653,174.169830 344.463226,173.298798 344.520569,172.201416 
	C344.752350,172.745392 344.814423,173.515686 344.782288,174.663437 
z"/>
<path fill="#C5DD37" opacity="1.000000" stroke="none" 
	d="
M344.782166,197.702911 
	C344.588409,197.473862 344.487000,196.903137 344.538574,196.150681 
	C344.752594,196.433060 344.813568,196.897141 344.782166,197.702911 
z"/>
<path fill="#C5DD37" opacity="1.000000" stroke="none" 
	d="
M344.178711,369.539124 
	C344.005066,369.570465 343.877716,369.281525 343.835693,369.127716 
	C343.793671,368.973907 344.136047,368.868988 344.316223,368.861389 
	C344.605988,369.106659 344.557983,369.324646 344.178711,369.539124 
z"/>
<path fill="#010100" opacity="1.000000" stroke="none" 
	d="
M308.938629,173.907700 
	C308.979095,174.087250 309.019562,174.266785 309.040161,175.176331 
	C309.104248,185.596146 309.188263,195.285980 309.272247,204.975800 
	C309.246338,205.155106 309.220459,205.334427 308.612000,205.744141 
	C265.270355,205.974533 222.511322,205.974533 179.394745,205.974533 
	C179.394745,239.558975 179.394745,272.702057 179.394745,306.124664 
	C181.451004,306.220795 183.089905,306.363617 184.728836,306.364136 
	C210.702194,306.372314 236.675629,306.390411 262.648865,306.330902 
	C267.439545,306.319916 274.223175,307.795746 276.492218,305.307404 
	C279.065979,302.484894 277.790222,295.977600 277.835938,291.069031 
	C277.891907,285.061401 277.582397,279.050415 277.436920,273.279053 
	C255.331711,273.279053 234.413544,273.279053 213.220032,273.279053 
	C213.220032,263.163055 213.167160,253.513077 213.298355,243.865616 
	C213.312103,242.854263 214.412796,241.857697 215.473511,240.918777 
	C230.700409,240.987488 245.463074,241.027939 260.225494,240.986069 
	C276.139557,240.940933 292.053375,240.818726 307.967316,240.730148 
	C308.304657,240.944778 308.642029,241.159409 309.003906,242.129761 
	C309.014954,272.385162 308.992584,301.884857 309.014496,331.384491 
	C309.015564,332.837402 309.403076,334.290070 309.610657,335.742828 
	C309.442963,336.032349 309.275299,336.321869 308.546448,336.752625 
	C254.331116,336.911682 200.676926,336.929596 147.022751,336.947510 
	C146.975510,285.709808 146.928345,234.472168 146.880753,183.234512 
	C146.878128,180.406464 146.871658,177.578415 147.401794,174.353699 
	C201.603958,173.940598 255.271286,173.924149 308.938629,173.907700 
z"/>
<path fill="#C3DB2F" opacity="1.000000" stroke="none" 
	d="
M215.009186,240.854279 
	C214.412796,241.857697 213.312103,242.854263 213.298355,243.865616 
	C213.167160,253.513077 213.220032,263.163055 213.220032,273.279053 
	C234.413544,273.279053 255.331711,273.279053 277.436920,273.279053 
	C277.582397,279.050415 277.891907,285.061401 277.835938,291.069031 
	C277.790222,295.977600 279.065979,302.484894 276.492218,305.307404 
	C274.223175,307.795746 267.439545,306.319916 262.648865,306.330902 
	C236.675629,306.390411 210.702194,306.372314 184.728836,306.364136 
	C183.089905,306.363617 181.451004,306.220795 179.394745,306.124664 
	C179.394745,272.702057 179.394745,239.558975 179.394745,205.974533 
	C222.511322,205.974533 265.270355,205.974533 308.493378,205.988647 
	C306.869415,206.325912 304.781860,206.927689 302.693420,206.930893 
	C264.549774,206.989288 226.406021,206.970337 188.262283,206.982559 
	C181.030258,206.984879 180.971970,207.053741 180.971237,214.202377 
	C180.968369,242.185547 180.972015,270.168701 180.987228,298.151886 
	C180.990936,304.982544 181.368652,305.195557 188.088165,304.590240 
	C190.527008,304.370544 193.027435,304.965942 195.500061,304.969269 
	C220.151855,305.002289 244.803757,305.010468 269.455536,304.973785 
	C275.397278,304.964935 276.000580,304.288177 276.018829,298.324890 
	C276.037659,292.162140 276.044403,285.998840 275.981171,279.836548 
	C275.940826,275.903503 274.419037,273.657654 269.917603,273.992889 
	C261.826447,274.595490 253.712585,275.087097 245.603149,275.179382 
	C240.658173,275.235718 235.707535,274.229553 230.752029,274.147461 
	C228.019745,274.102173 225.188416,274.702423 222.548019,275.497467 
	C216.037460,277.457825 212.022964,274.712433 212.016403,268.009003 
	C212.008911,260.346954 211.887833,252.681351 212.107117,245.025620 
	C212.154465,243.372086 213.442703,241.754105 214.568542,240.284775 
	C214.977722,240.449799 215.009201,240.854279 215.009186,240.854279 
z"/>
<path fill="#D0E84D" opacity="1.000000" stroke="none" 
	d="
M308.767365,173.630615 
	C255.271286,173.924149 201.603958,173.940598 147.478302,173.877686 
	C147.621185,173.368851 148.222321,172.563385 148.823593,172.563309 
	C201.488831,172.555573 254.154083,172.607605 306.819305,172.688538 
	C307.411896,172.689468 308.003845,173.122299 308.767365,173.630615 
z"/>
<path fill="#DAF140" opacity="1.000000" stroke="none" 
	d="
M147.345688,337.206543 
	C200.676926,336.929596 254.331116,336.911682 308.441528,336.894348 
	C307.337646,337.261505 305.777863,337.946747 304.217377,337.948456 
	C253.337219,338.003723 202.456970,337.997131 151.576752,337.970490 
	C150.273956,337.969818 148.971329,337.641205 147.345688,337.206543 
z"/>
<path fill="#D2ED3A" opacity="1.000000" stroke="none" 
	d="
M215.473526,240.918777 
	C215.009201,240.854279 214.977722,240.449799 214.960495,240.248108 
	C244.726608,240.027740 274.509949,240.005692 304.293274,240.005020 
	C305.278839,240.005005 306.264404,240.221497 307.608643,240.533600 
	C292.053375,240.818726 276.139557,240.940933 260.225494,240.986069 
	C245.463074,241.027939 230.700409,240.987488 215.473526,240.918777 
z"/>
<path fill="#D5E743" opacity="1.000000" stroke="none" 
	d="
M309.721741,335.230438 
	C309.403076,334.290070 309.015564,332.837402 309.014496,331.384491 
	C308.992584,301.884857 309.014954,272.385162 309.118958,242.418365 
	C309.466309,242.900681 309.947723,243.850204 309.947449,244.799561 
	C309.938019,274.772400 309.881866,304.745209 309.721741,335.230438 
z"/>
<path fill="#D6EB41" opacity="1.000000" stroke="none" 
	d="
M309.470245,204.617371 
	C309.188263,195.285980 309.104248,185.596146 309.112793,175.442688 
	C309.359650,184.738998 309.513947,194.498978 309.470245,204.617371 
z"/>
<path fill="#020100" opacity="1.000000" stroke="none" 
	d="
M381.013306,345.243469 
	C380.950897,339.826599 381.034698,334.843475 380.919403,329.865021 
	C380.859589,327.281219 381.437653,325.782257 384.461914,325.869690 
	C389.755035,326.022614 395.055756,325.912354 400.721069,325.912354 
	C400.721069,332.697021 400.721069,339.238464 400.721069,346.625702 
	C394.209595,346.311951 387.643311,345.995575 381.013306,345.243469 
z"/>
</svg>